<?xml version="1.0" encoding="UTF-8" standalone="no"?>
<!-- Created with Inkscape (http://www.inkscape.org/) -->

<svg
   xmlns:dc="http://purl.org/dc/elements/1.1/"
   xmlns:cc="http://creativecommons.org/ns#"
   xmlns:rdf="http://www.w3.org/1999/02/22-rdf-syntax-ns#"
   xmlns:svg="http://www.w3.org/2000/svg"
   xmlns="http://www.w3.org/2000/svg"
   xmlns:sodipodi="http://sodipodi.sourceforge.net/DTD/sodipodi-0.dtd"
   xmlns:inkscape="http://www.inkscape.org/namespaces/inkscape"
   width="128"
   height="128"
   id="svg2"
   version="1.1"
   inkscape:version="0.48.2 r9819"
   sodipodi:docname="pause.svg">
  <defs
     id="defs4" />
  <sodipodi:namedview
     id="base"
     pagecolor="#ffffff"
     bordercolor="#666666"
     borderopacity="1.0"
     inkscape:pageopacity="0.0"
     inkscape:pageshadow="2"
     inkscape:zoom="2.6824773"
     inkscape:cx="-99.421098"
     inkscape:cy="21.90138"
     inkscape:document-units="px"
     inkscape:current-layer="layer1"
     showgrid="false"
     showguides="false"
     inkscape:window-width="1854"
     inkscape:window-height="1056"
     inkscape:window-x="66"
     inkscape:window-y="24"
     inkscape:window-maximized="1" />
  <metadata
     id="metadata7">
    <rdf:RDF>
      <cc:Work
         rdf:about="">
        <dc:format>image/svg+xml</dc:format>
        <dc:type
           rdf:resource="http://purl.org/dc/dcmitype/StillImage" />
        <dc:title />
      </cc:Work>
    </rdf:RDF>
  </metadata>
  <g
     inkscape:label="Layer 1"
     inkscape:groupmode="layer"
     id="layer1"
     transform="translate(0,-924.36218)">
    <g
       id="g2988"
       transform="matrix(0.96646943,0,0,0.96646943,2.1459566,33.140348)">
      <path
         transform="matrix(0.99175849,0,0,0.9917584,-1.2001503,925.05558)"
         d="m 126.75996,63.832691 c 0,33.699306 -27.318688,61.017989 -61.017994,61.017989 -33.699305,0 -61.0179899,-27.318683 -61.0179899,-61.017989 0,-33.699305 27.3186849,-61.0179899 61.0179899,-61.0179899 33.699306,0 61.017994,27.3186849 61.017994,61.0179899 z"
         sodipodi:ry="61.01799"
         sodipodi:rx="61.01799"
         sodipodi:cy="63.832691"
         sodipodi:cx="65.741966"
         id="path3759"
         style="fill:#ffffff;fill-opacity:0;stroke:#ffffff;stroke-width:5.76731157;stroke-linecap:butt;stroke-linejoin:round;stroke-miterlimit:4;stroke-opacity:1;stroke-dasharray:none"
         sodipodi:type="arc" />
      <path
         sodipodi:type="arc"
         style="fill:#ffffff;fill-opacity:0;stroke:#ffffff;stroke-width:5.76731157;stroke-linecap:butt;stroke-linejoin:round;stroke-miterlimit:4;stroke-opacity:1;stroke-dasharray:none"
         id="path3752"
         sodipodi:cx="65.741966"
         sodipodi:cy="63.832691"
         sodipodi:rx="61.01799"
         sodipodi:ry="61.01799"
         d="m 126.75996,63.832691 c 0,33.699306 -27.318688,61.017989 -61.017994,61.017989 -33.699305,0 -61.0179899,-27.318683 -61.0179899,-61.017989 0,-33.699305 27.3186849,-61.0179899 61.0179899,-61.0179899 33.699306,0 61.017994,27.3186849 61.017994,61.0179899 z"
         transform="matrix(0.99175849,0,0,0.9917584,-1.2001503,925.05558)" />
      <path
         transform="matrix(0.99175849,0,0,0.9917584,-1.2001503,925.05558)"
         d="m 126.75996,63.832691 c 0,33.699306 -27.318688,61.017989 -61.017994,61.017989 -33.699305,0 -61.0179899,-27.318683 -61.0179899,-61.017989 0,-33.699305 27.3186849,-61.0179899 61.0179899,-61.0179899 33.699306,0 61.017994,27.3186849 61.017994,61.0179899 z"
         sodipodi:ry="61.01799"
         sodipodi:rx="61.01799"
         sodipodi:cy="63.832691"
         sodipodi:cx="65.741966"
         id="path3756"
         style="fill:#000000;fill-opacity:0.1254902;stroke:#ffffff;stroke-width:5.76731157;stroke-linecap:butt;stroke-linejoin:round;stroke-miterlimit:4;stroke-opacity:1;stroke-dasharray:none"
         sodipodi:type="arc" />
      <g
         transform="matrix(0.99023433,0,0,0.99023433,0.62500576,9.6445598)"
         style="fill:#ffffff"
         id="g3778">
        <rect
           style="fill:#ffffff;fill-opacity:1;stroke:#ffffff;stroke-width:0;stroke-linecap:butt;stroke-linejoin:miter;stroke-miterlimit:4;stroke-opacity:1;stroke-dasharray:none"
           id="rect3774"
           width="19"
           height="78"
           x="35.5"
           y="949.37726"
           ry="3.7249498e-13" />
        <rect
           style="fill:#ffffff;fill-opacity:1;stroke:#ffffff;stroke-width:0;stroke-linecap:butt;stroke-linejoin:miter;stroke-miterlimit:4;stroke-opacity:1;stroke-dasharray:none"
           id="rect3776"
           width="19"
           height="78"
           x="73.5"
           y="949.36218"
           ry="1.3991276e-12" />
      </g>
    </g>
  </g>
</svg>
